Coordinates
version=1
nRows=22
nColumns=24
inDegrees=yes

Units are S.I. units (second, meters, Newtons, ...)
Angles are in degrees.

endheader
time	pelvis_tilt	pelvis_list	pelvis_rotation	pelvis_tx	pelvis_ty	pelvis_tz	hip_flexion_r	hip_adduction_r	hip_rotation_r	knee_angle_r	ankle_angle_r	subtalar_angle_r	mtp_angle_r	hip_flexion_l	hip_adduction_l	hip_rotation_l	knee_angle_l	ankle_angle_l	subtalar_angle_l	mtp_angle_l	lumbar_extension	lumbar_bending	lumbar_rotation
      4.15000000	     -9.81897905	     -1.13896318	     11.02039452	     -1.07367983	     -0.02167167	     -0.33010091	     31.77080738	     -3.83365511	     -8.74638272	     -8.13959876	     -2.16142268	      6.25395807	     11.99252234	     -5.28319855	      0.40213312	     22.22504815	    -12.77548314	      5.79804681	      0.86336843	     13.83619983	      5.97541808	     -1.61343261	    -12.19766008
      4.15500000	     -9.86123734	     -1.36234631	     11.00815030	     -1.06736560	     -0.02236497	     -0.32941695	     31.78622308	     -3.54972719	     -8.94112553	     -8.61600988	     -2.57156931	      6.19787091	     12.13369682	     -5.27787604	      0.14449294	     22.18147682	    -13.41150922	      5.60658654	      1.02141349	     14.01601374	      6.21787671	     -1.35373197	    -12.10438911
      4.16000000	     -9.99592615	     -1.58176395	     11.08949546	     -1.06131897	     -0.02314938	     -0.32863307	     31.91203281	     -3.32565919	     -9.04239913	     -9.07428888	     -3.36987271	      5.81282292	     13.03189939	     -4.98494729	     -0.11681576	     21.68775270	    -14.28111655	      5.54890685	      2.04118578	     15.08198884	      6.51242068	     -1.15601822	    -12.16860674
      4.16500000	    -10.09974699	     -1.85578622	     10.98817338	     -1.05504377	     -0.02382357	     -0.32780251	     32.02133722	     -2.95486969	     -9.00967098	     -9.50668313	     -4.44034698	      5.38009783	     14.40420001	     -4.82562420	     -0.42577042	     21.27951868	    -14.97477511	      5.08166254	      2.40083617	     16.36600949	      6.82794313	     -0.83844582	    -12.01338690
      4.17000000	    -10.17558756	     -2.19508746	     11.06454053	     -1.04894462	     -0.02432749	     -0.32714137	     32.11859188	     -2.61343428	     -9.17756693	    -10.04891678	     -5.08505218	      5.12907021	     14.61018110	     -4.57749819	     -0.80005289	     21.04664598	    -15.86543386	      4.86392881	      3.05554371	     16.88061573	      7.09656025	     -0.48027224	    -12.06600865
      4.17500000	    -10.27783705	     -2.56164622	     10.98348243	     -1.04281357	     -0.02484095	     -0.32627540	     32.29843772	     -2.15679077	     -9.09832174	    -10.65563519	     -5.75684597	      4.80477208	     14.81821057	     -4.28156425	     -1.20127207	     20.52287561	    -16.77998885	      4.57941575	      3.79541648	     17.64003947	      7.40146469	     -0.07219254	    -11.95501538
      4.18000000	    -10.36945237	     -2.95542359	     10.88195794	     -1.03671972	     -0.02525067	     -0.32538272	     32.48960759	     -1.65545785	     -8.93432910	    -11.30365592	     -6.39778231	      4.46430797	     14.94499718	     -3.95927685	     -1.63510247	     19.95527118	    -17.73078288	      4.17324862	      4.52667373	     18.54911271	      7.69550883	      0.37358216	    -11.83741110
      4.18500000	    -10.45105200	     -3.37038434	     10.74730895	     -1.03064370	     -0.02556326	     -0.32447751	     32.69256433	     -1.11040986	     -8.68813535	    -11.99912338	     -6.96293328	      4.15629781	     14.94653562	     -3.61406694	     -2.09597041	     19.31511616	    -18.72025840	      3.67603816	      5.28938162	     19.54532271	      7.97736996	      0.85491209	    -11.70002153
      4.19000000	    -10.52338766	     -3.80207080	     10.58726623	     -1.02458671	     -0.02579211	     -0.32353537	     32.90523216	     -0.52595275	     -8.36400063	    -12.74077041	     -7.43663295	      3.86998231	     14.81010676	     -3.23858995	     -2.58484952	     18.60221794	    -19.76093989	      3.10588555	      6.11945838	     20.60108370	      8.24682192	      1.36038447	    -11.54344485
      4.19500000	    -10.58763100	     -4.23009722	     10.40601750	     -1.01851477	     -0.02592529	     -0.32256963	     33.11236115	      0.07864453	     -7.95684245	    -13.50742691	     -7.81766814	      3.58105929	     14.51911063	     -2.83870161	     -3.08410799	     17.80631994	    -20.84003097	      2.40114447	      6.99324231	     21.77166488	      8.50665514	      1.86863042	    -11.38512640
      4.20000000	    -10.66553065	     -4.67053443	     10.19348073	     -1.01240408	     -0.02597849	     -0.32155239	     33.33265997	      0.73271455	     -7.43500355	    -14.29199212	     -8.11182951	      3.18784641	     13.75643844	     -2.42591937	     -3.60828481	     17.03416172	    -21.85739737	      1.34106672	      7.63559530	     23.64371307	      8.78506851	      2.39215064	    -11.18755160
      4.20500000	    -10.63936240	     -5.06568475	     10.00604834	     -1.00631130	     -0.02593076	     -0.32061210	     33.43597603	      1.32917584	     -7.02439750	    -15.09264494	     -8.18411752	      3.10578963	     13.45139132	     -2.04737211	     -4.12204468	     16.09289910	    -23.06404480	      0.58407151	      8.78973704	     24.56909469	      8.93384989	      2.88911451	    -11.05183100
      4.21000000	    -10.66184710	     -5.48739532	      9.74304632	     -1.00001531	     -0.02583310	     -0.31956314	     33.55822883	      2.01915331	     -6.43955130	    -15.86665823	     -8.15135407	      2.85719252	     12.42496047	     -1.66219033	     -4.68271445	     15.13296849	    -24.11938238	     -0.71643185	      9.55415834	     26.53100302	      9.17221757	      3.41538056	    -10.83572927
      4.21500000	    -10.64783505	     -5.85077331	      9.54833993	     -0.99383836	     -0.02568466	     -0.31854897	     33.62512062	      2.62145399	     -6.01449851	    -16.59631258	     -8.20780531	      2.52560346	     11.91242913	     -1.22252771	     -5.20872368	     14.13637648	    -25.36527606	     -1.80669498	     10.70840408	     27.62758579	      9.33628135	      3.86511097	    -10.67392857
      4.22000000	    -10.60638682	     -6.18239761	      9.35114955	     -0.98755398	     -0.02549894	     -0.31754079	     33.60801592	      3.21433398	     -5.46552140	    -17.27071542	     -8.12099870	      2.23370207	     11.45626585	     -0.81540826	     -5.73193469	     13.14537046	    -26.58832432	     -3.07661767	     11.85348510	     28.90839079	      9.48107341	      4.28342467	    -10.56085909
      4.22500000	    -10.53599878	     -6.48403635	      9.11911148	     -0.98122610	     -0.02523776	     -0.31653368	     33.53537114	      3.79794603	     -5.05577666	    -17.90770625	     -7.96651922	      1.98354662	     10.90278361	     -0.44496075	     -6.24500659	     12.11120098	    -27.77343341	     -4.65754536	     12.77743051	     30.48460170	      9.58907727	      4.69452913	    -10.34893230
      4.23000000	    -10.45571401	     -6.73916011	      8.94573171	     -0.97491387	     -0.02496421	     -0.31555665	     33.39231820	      4.32177665	     -4.57721200	    -18.46014506	     -7.78489021	      1.69343403	     10.61974027	     -0.04139808	     -6.72840597	     11.16892812	    -29.03397268	     -6.21016017	     13.87101677	     31.62621038	      9.68000052	      5.03523361	    -10.25497573
      4.23500000	    -10.35859160	     -6.94299311	      8.77277595	     -0.96859729	     -0.02463461	     -0.31457417	     33.18633933	      4.80314657	     -4.15231675	    -18.94311100	     -7.57967627	      1.39507815	     10.42029755	      0.34420502	     -7.17568175	     10.25514133	    -30.26791849	     -7.96156260	     14.85440725	     32.81568649	      9.74330751	      5.31947678	    -10.12831673
      4.24000000	    -10.26557189	     -7.11615590	      8.61927315	     -0.96228818	     -0.02429630	     -0.31357986	     32.93522334	      5.25143394	     -3.75705367	    -19.34255374	     -7.35315896	      1.07611795	     10.36237003	      0.75713876	     -7.60052553	      9.41390126	    -31.52536534	     -9.80013156	     15.79723294	     33.80038060	      9.80653362	      5.56074059	    -10.02643073
      4.24500000	    -10.17381178	     -7.26076480	      8.48970805	     -0.95602676	     -0.02393903	     -0.31261589	     32.64058352	      5.66020742	     -3.39930170	    -19.66217220	     -7.12344486	      0.75223989	     10.43260131	      1.19984986	     -7.99630882	      8.65459372	    -32.80987591	    -11.70410693	     16.64446554	     34.55825277	      9.86256235	      5.76794635	     -9.94062896
      4.25000000	    -10.09359629	     -7.40076302	      8.38429208	     -0.94978383	     -0.02357133	     -0.31165380	     32.30957879	      6.05446559	     -3.08210934	    -19.88745731	     -6.91586619	      0.38614423	     10.62190168	      1.68334440	     -8.38464890	      7.98237975	    -34.10972183	    -13.68878404	     17.30641543	     35.16854517	      9.93391850	      5.95381378	     -9.87951622
      4.25500000	     -9.99861204	     -7.51216658	      8.32226716	     -0.94368129	     -0.02320564	     -0.31074984	     31.94109286	      6.38840304	     -2.86915754	    -20.07569768	     -6.57689779	      0.15275072	     10.81602978	      2.20963710	     -8.73618055	      7.40773351	    -35.50982010	    -15.48229434	     17.96675812	     35.08754849	      9.96427668	      6.10481466	     -9.84840858
